<svg xmlns="http://www.w3.org/2000/svg" viewBox="0 0 715.65 329"><defs><style>.a{fill:#812a41;}.b{fill:#812940;}.c{fill:#c61633;}.d{fill:#1887c5;}.e{fill:#fdc3c6;}.f{fill:#904256;}.g{fill:#fcc2c5;}.h{fill:#fcc1c4;}.i{fill:#863147;}.j{fill:#e5a5a9;}.k{fill:#822c42;}.l{fill:#fbf9f9;}.m{fill:#f9f8f8;}</style></defs><title>ongyilkos</title><path class="a" d="M265.65,0c2.36,1.66,5.25,1.52,7.86,2.35a51.42,51.42,0,0,1,36.05,49.29c0,67.13.16,134.26-.14,201.38-0.06,13.4,4,23.35,17,29.21H253.91c0.07-25.16-17.42-42.33-35.67-47.51-10-2.84-20.17-1.41-30.27-1.67-2.86-.08-2.07,2.43-2.38,4.08C174.94,237,174.94,237,175,226.36a10.65,10.65,0,0,0,0-1.5c-0.55-3.95,1.14-5,5-5,22.33,0.19,44.66.15,67,.09,25.89-.07,45.48-19.68,45.54-45.61,0.06-27.16-.08-54.33.12-81.49,0-4.28-1.29-5.17-5.33-5.15q-42.49.23-85,0c-19.5-.08-34.23-11.6-39.06-30.2-0.25-1-.13-2.21-1.3-2.86-6.06,22.67-19.61,33.08-43,33.09-26.83,0-53.66.09-80.49,0-3.4,0-4.62.85-4.61,4.4,0.11,27.5-.22,55,0.11,82.49C34.33,201.17,53.8,220,80.3,220q28,0,56,0c8.73,0,8.73,0,8.74,8.56,0,8.39,0,8.39-8.26,8.6-0.25-1.86.38-4.29-2.83-4.17-9.27.33-18.58-.88-27.76,1.69a49.29,49.29,0,0,0-35.72,47.49H0c12.43-5.55,17.08-14.7,17-27.73-0.24-67.16-.14-134.33-0.1-201.49,0-24,13.89-43.3,35.88-50.5,2.6-.85,5.52-0.71,7.84-2.44h4c1.46,1.69,3.42,1,5.16,1Q163.15,1,256.49,1c1.74,0,3.7.7,5.17-1h4Z"/><path class="b" d="M431.6,123.14c-9.49-3.9-13.36-11.09-13.2-21.21,0.26-16.46,0-32.92,0-49.38,0-25,14.58-44.09,38.83-50.95,1.16-.33,2.78,0,3.38-1.61h5c1.45,1.72,3.41,1,5.15,1Q564.4,1,658,1c1.89,0,4,.82,5.66-1h4c0.28,1.05,1.2.9,2,1.08,25.85,6.13,41.21,25.46,41.26,52,0,15.13-.52,30.28.17,45.37,0.55,12-2.92,20.8-14.39,25.58-3.11.08-2.75-2.14-2.75-4.14,0-8.83-.26-17.67.11-26.48,0.2-4.66-.84-6.24-5.9-6.14-22.48.41-45,.39-67.45,0.43q-46.21.07-92.43,0a38.1,38.1,0,0,1-17.4-3.85c-12-6.08-19-16-21.78-30.09-0.6,1.85-.9,2.6-1.1,3.38-4.31,17.22-16.63,28.29-34.17,30.33a87.72,87.72,0,0,1-14,.31c-3.61-.16-4.45,1.21-4.37,4.6,0.22,9.32,0,18.66.14,28C435.67,123.7,434.58,124.49,431.6,123.14Z"/><path class="c" d="M70.46,282.16a49.29,49.29,0,0,1,35.72-47.49c9.18-2.57,18.5-1.36,27.76-1.69,3.21-.12,2.58,2.31,2.83,4.17,0.49,13.43,12.82,24,26.25,22.45,13.66-1.55,22.78-10.63,22.57-22.48,0.31-1.65-.49-4.15,2.38-4.08,10.1,0.27,20.27-1.16,30.27,1.67,18.26,5.18,35.74,22.35,35.67,47.51,0,3.11,0,6.23.08,9.34,0,1.74,0,3.35-2.29,3.57L219.65,295c-2.86-.45-1.65-2.7-1.9-4.3-0.43-2.85,1-6-2.1-8.54V329h-107V282.16l-1.54,0c-1,3-.23,6.13-0.45,9.18-0.11,1.54.6,3.5-2,3.71l-32,0c-2.42-.15-2.16-1.93-2.16-3.56C70.48,288.38,70.47,285.27,70.46,282.16Z"/><path class="d" d="M473.71,295.08a2.08,2.08,0,0,1-1.88-1.92c-3.36-33.93,15.7-55.23,41.7-59.74,7.24-1.26,14.64-.24,22-0.53,3.39-.14,1.94,2.85,3,4.2,0,12.65,10.32,22.36,24.07,22.55,13.53,0.19,24.11-9.52,24.68-22.66,0.63-1.57-.65-4.27,2.82-4.09,8.29,0.43,16.64-.78,24.89.77,25.47,4.78,43.94,26.52,40.61,59.53-0.13,1.32-1,1.53-2,1.84h-32c-2.74-.3-2.07-2.42-2.28-4.15-0.35-2.93,1-6.11-.91-8.81l-1.76,0V329h-106c-0.07-13.78-.09-27.55-0.25-41.33,0-1.83.87-5.27-1-5.19-2.84.13-.92,3.46-1.45,5.33-0.69,2.43,1.78,5.85-2.28,7.22Z"/><path class="e" d="M653.58,295q0,17,.07,34h-32q0-17-.06-34h32Z"/><path class="e" d="M72.65,329l0-34,32,0,0,33.93h-32Z"/><path class="e" d="M219.65,295l32.05,0.13q0,16.93-.05,33.86h-32Q219.65,312,219.65,295Z"/><path class="e" d="M473.71,295.08l32-.05q0,17,0,34h-32Z"/><path class="f" d="M663.65,0C662,1.78,659.89,1,658,1Q564.4,1,470.8,1c-1.73,0-3.7.75-5.15-1h198Z"/><path class="f" d="M261.65,0c-1.46,1.67-3.43,1-5.17,1Q163.15,1,69.81,1c-1.74,0-3.7.72-5.16-1h197Z"/><path class="e" d="M714.64,132l1,0v21l-1-.1Q714.63,142.46,714.64,132Z"/><path class="g" d="M714.64,132q0,10.44,0,20.88c-1.76,5.39-5.7,7.2-11.1,7.18-10.9,0-10.15-1.37-9.73,9.85,0.49,13-2,24.69-10.87,34.64-8.35,9.4-18.7,15.07-31.23,15.29-23.29.4-46.59,0.23-69.89,0-4.2,0-5.84,1.22-5.18,5.33a9.68,9.68,0,0,1,0,1.5c0,10.41,0,10.41,10.59,10.25-0.58,13.14-11.15,22.85-24.69,22.66-13.75-.2-24.11-9.9-24.07-22.55,8.17-.16,8.17-0.16,8.17-8.3,0-8.79,0-8.79-8.62-8.79-19.65,0-39.3,0-59,0-23.13-.08-43.3-20.29-43.44-43.43,0-4.33-.09-8.66,0-13,0.07-2.53-.8-3.68-3.45-3.55-2.82.14-5.67,0.12-8.49,0a9.38,9.38,0,0,1-9-7.84,48.49,48.49,0,0,1-.17-18.79c1.29-6.27,4.48-9.11,10.87-9.4,2.08-.1,4.34.84,6.23-0.82,3,1.35,4.07.55,4-2.86-0.19-9.32.08-18.66-.14-28-0.08-3.4.77-4.76,4.37-4.6a87.72,87.72,0,0,0,14-.31c17.54-2,29.86-13.12,34.17-30.33,0.19-.78.49-1.53,1.1-3.38,2.8,14.13,9.78,24,21.78,30.09a38.1,38.1,0,0,0,17.4,3.85q46.21,0.11,92.43,0c22.48,0,45,0,67.45-.43,5.06-.09,6.1,1.48,5.9,6.14-0.37,8.81-.11,17.65-0.11,26.48,0,2-.36,4.22,2.75,4.14,2.66,0,5.33-.19,8,0.08C709.59,124.56,713.58,126.51,714.64,132ZM518.77,145.39a30,30,0,0,0-29.66-30.07c-16.4-.12-30.27,13.72-30.24,30.19,0,16.23,13.71,29.7,30.1,29.67A29.66,29.66,0,0,0,518.77,145.39Zm91.91-.49a29.75,29.75,0,0,0,29.82,30.27c16.23,0,29.76-13.12,30-29.19A29.91,29.91,0,1,0,610.68,144.9ZM565.83,150c-2.49,0-5-.05-7.48,0-5.16.13-9.24,3.6-9.68,8.18-0.45,4.74,3,10,7.93,10.48,6.39,0.6,12.94,1.3,19.28-.59,5.26-1.57,7.4-5,6.76-10.05a9.42,9.42,0,0,0-9.32-8C570.82,149.9,568.32,150,565.83,150Zm-2,42.22c5,0,10,0,15,0,3.52,0,6-1.45,6.09-5.07,0.1-3.91-2.55-5.57-6.2-5.56-10.13,0-20.27.16-30.4,0.19-3.6,0-5.89,1.66-5.87,5.25s2.44,5.19,6,5.18C553.55,192.17,558.7,192.19,563.86,192.19Zm97.91-79.69a2.49,2.49,0,0,0,2.71-2.4c0.33-2.64-1.56-3.35-3.73-3.6-9.38-1.1-17.51-4.75-24.08-11.66-1.44-1.51-3.26-2.83-5.15-1-2.18,2.13-.43,3.93,1.11,5.48C640.25,107,649.36,111.65,661.76,112.5Zm-193.31.13c11.65-1.13,21.33-5.65,29.08-14.08,1.37-1.49,2-3.16.26-4.77-1.56-1.42-3.17-.8-4.4.5A38.83,38.83,0,0,1,468,106.57c-1.73.16-3.32,1.1-3.21,3.14C465,112.06,466.85,112.45,468.45,112.63Zm172.29,74.49a52.45,52.45,0,0,0-6.26,11.9c-1.38,3.37-.09,6,2.32,7.88a6.59,6.59,0,0,0,7.92.26,6.46,6.46,0,0,0,2.51-7.9A34.31,34.31,0,0,0,640.74,187.12ZM564.51,201c1.83-.52,5,1,5.14-2.16s-3.09-2.36-5-2.39-5-.68-4.94,2.45C559.79,201.8,562.71,200.58,564.51,201Z"/><path class="h" d="M185.59,237.13c0.21,11.85-8.91,20.93-22.57,22.48-13.43,1.52-25.76-9-26.25-22.45,8.26-.22,8.26-0.22,8.26-8.6,0-8.56,0-8.56-8.74-8.56q-28,0-56,0c-26.5,0-46-18.82-46.29-45.35-0.33-27.49,0-55-.11-82.49,0-3.55,1.2-4.41,4.61-4.4,26.83,0.11,53.66,0,80.49,0,23.39,0,36.94-10.42,43-33.09,1.16,0.65,1,1.88,1.3,2.86,4.83,18.6,19.55,30.12,39.06,30.2q42.49,0.17,85,0c4,0,5.36.87,5.33,5.15-0.2,27.16-.06,54.33-0.12,81.49C292.5,200.3,272.91,219.92,247,220c-22.33.06-44.66,0.1-67-.09-3.9,0-5.59,1-5,5a10.65,10.65,0,0,1,0,1.5C174.94,237,174.94,237,185.59,237.13ZM87.49,175.2a30,30,0,0,0,29.62-34.26c-0.36-2.45-1.12-4.65,2.51-5.05a2,2,0,0,0,1.74-2.54A1.82,1.82,0,0,0,119,132c-4,1.22-5.59-1.29-7.36-4.08a23.43,23.43,0,0,0-6.64-6.7c-1.91-1.31-3.52-2.48-2.35-5.17a2.18,2.18,0,0,0-.73-2.69c-0.75-.53-1.92-0.54-2.22.23-1.93,4.95-5.7,2.59-8.72,2.09a28.35,28.35,0,0,0-10.38.61c-2.18.44-3.79,0.9-4.63-1.81a1.89,1.89,0,0,0-2.8-1.23c-0.82.38-1.53,1.23-1.13,2,2.12,4-1.16,5.09-3.35,7a34.76,34.76,0,0,0-5.16,5.38c-2,2.61-3.35,5.84-7.67,4.46a1.78,1.78,0,0,0-2.26,1.45A1.76,1.76,0,0,0,55,135.75c4,0.46,3.24,2.89,2.86,5.7A29.89,29.89,0,0,0,87.49,175.2Zm151.32,0c15.43,0.43,32-12.74,29.92-33.51-0.25-2.52-1.31-5.5,3-5.93a1.72,1.72,0,0,0,1.22-2.36,1.79,1.79,0,0,0-2.29-1.41c-4,1.25-5.57-1.2-7.32-4.08a21.75,21.75,0,0,0-7-7c-1.88-1.19-3.16-2.32-1.91-4.76a2,2,0,0,0-1-3c-0.84-.41-2-0.33-2.22.4-1.46,4.75-4.92,2.68-7.68,2.2a26.29,26.29,0,0,0-10.88.35c-2.32.56-4.13,1-5-1.9a1.91,1.91,0,0,0-2.43-1.23,1.72,1.72,0,0,0-1.4,2.26c1.85,3.94-1.34,5-3.5,6.9a31.35,31.35,0,0,0-5.4,5.83c-1.75,2.58-3.16,5.1-7,4a2.22,2.22,0,0,0-2.8,1.51,1.79,1.79,0,0,0,1.48,2.25c4.15,0.46,3.28,3.22,3,5.89A29.72,29.72,0,0,0,238.81,175.18ZM164.42,150c-3,0-6-.08-9,0-4.61.15-6.83,3.38-7.66,7.2-1,4.36.23,9,4.76,10.4a40.22,40.22,0,0,0,22.58.32c4.17-1.11,7-6,6.42-9.61-0.88-5.13-4.41-8.21-9.63-8.34C169.42,149.92,166.92,150,164.42,150Zm-2.22,42.22c5,0,10,0,15,0,3.7,0,6.34-1.53,6.28-5.42,0-3.61-2.65-5.22-6.07-5.22-10.3,0-20.61.14-30.91,0.21-3.41,0-5.53,1.81-5.57,5.07,0,3.55,2.28,5.34,5.84,5.35C151.9,192.21,157.05,192.2,162.21,192.21ZM66.86,112.57C78.65,111.48,88,107,95.69,99c1.4-1.46,2.82-3.22.83-5.16-1.69-1.66-3.48-.78-4.81.63a38.41,38.41,0,0,1-25,12.06c-2,.21-3.67,1.37-3.37,3.53S65.74,112.54,66.86,112.57Zm193.07,0a2.87,2.87,0,0,0,3.17-2.58c0.32-2.55-1.82-3.31-3.93-3.53a37.78,37.78,0,0,1-23.45-11.08c-1.55-1.54-3.35-3.55-5.51-1.63-2.5,2.22-.4,4.27,1.24,5.9C238.91,107.09,247.91,111.39,259.93,112.57Zm-20.55,74.5c-3.27,4.44-5.6,8.77-6.67,13.68a5.69,5.69,0,0,0,3.16,6.67,7,7,0,0,0,7.55-.44c2.15-1.65,3.45-3.87,2.42-6.92C244.37,195.66,242.86,191.32,239.39,187.06ZM163.52,201c1.67-.48,5,0.82,4.76-2.45-0.18-2.82-3.37-2.08-5.36-2.13s-4.83-.37-4.79,2.22C158.18,201.72,161.29,200.69,163.52,201Z"/><path class="i" d="M518.77,145.39A29.66,29.66,0,0,1,489,175.18c-16.39,0-30.06-13.44-30.1-29.67,0-16.46,13.84-30.31,30.24-30.19A30,30,0,0,1,518.77,145.39Zm-29.69-25.55a25.29,25.29,0,0,0-25.74,25.48A25.64,25.64,0,1,0,489.07,119.84Z"/><path class="i" d="M610.68,144.9a29.91,29.91,0,1,1,59.8,1.09c-0.23,16.06-13.75,29.23-30,29.19A29.75,29.75,0,0,1,610.68,144.9Zm55.45,0.4a25.3,25.3,0,0,0-25.27-25.45A25.56,25.56,0,1,0,666.12,145.3Z"/><path class="j" d="M565.83,150c2.49,0,5-.07,7.48,0a9.42,9.42,0,0,1,9.32,8c0.65,5.1-1.49,8.48-6.76,10.05-6.34,1.89-12.89,1.19-19.28.59-4.95-.46-8.38-5.74-7.93-10.48,0.44-4.58,4.52-8.06,9.68-8.18C560.84,149.92,563.34,150,565.83,150Zm-6.53,10c1.17,0,2.34.08,3.49,0a2.75,2.75,0,0,0,2.8-2.9,2.64,2.64,0,0,0-2.66-3,41.77,41.77,0,0,0-7.46.16,2.9,2.9,0,0,0,.32,5.76C557,160,558.14,160,559.3,160Z"/><path class="k" d="M563.86,192.19c-5.15,0-10.3,0-15.45,0-3.53,0-6-1.56-6-5.18s2.27-5.24,5.87-5.25c10.13,0,20.27-.17,30.4-0.19,3.65,0,6.3,1.65,6.2,5.56-0.09,3.62-2.57,5.1-6.09,5.07C573.83,192.15,568.84,192.19,563.86,192.19Zm-5.67-2c2.29-.07,5.13.34,5.31-2.94,0.21-3.71-2.85-3.41-5.31-3.46s-5.14,0-5.12,3.18S555.73,190.26,558.19,190.17Zm12.6,0c2.56,0,5.33.22,5.56-2.94s-2.41-3.51-4.85-3.45-5.56-.4-5.61,3.18C565.85,190.08,568.54,190.26,570.79,190.16Z"/><path class="i" d="M661.76,112.5c-12.41-.85-21.51-5.47-29.14-13.16-1.54-1.56-3.29-3.35-1.11-5.48,1.89-1.85,3.71-.53,5.15,1,6.57,6.91,14.7,10.56,24.08,11.66,2.17,0.25,4.06,1,3.73,3.6A2.49,2.49,0,0,1,661.76,112.5Z"/><path class="i" d="M468.45,112.63c-1.59-.18-3.49-0.57-3.62-2.91-0.11-2,1.49-3,3.21-3.14a38.83,38.83,0,0,0,25.35-12.3c1.23-1.3,2.85-1.92,4.4-.5,1.76,1.61,1.11,3.28-.26,4.77C489.78,107,480.1,111.5,468.45,112.63Z"/><path class="l" d="M640.74,187.12a34.31,34.31,0,0,1,6.49,12.14,6.46,6.46,0,0,1-2.51,7.9,6.59,6.59,0,0,1-7.92-.26c-2.41-1.9-3.71-4.51-2.32-7.88A52.45,52.45,0,0,1,640.74,187.12Z"/><path class="i" d="M564.51,201c-1.8-.42-4.72.8-4.78-2.1-0.06-3.13,3-2.49,4.94-2.45s5.1-.72,5,2.39S566.34,200.47,564.51,201Z"/><path class="i" d="M87.49,175.2a29.89,29.89,0,0,1-29.67-33.74c0.39-2.81,1.17-5.24-2.86-5.7a1.76,1.76,0,0,1-1.34-2.32A1.78,1.78,0,0,1,55.89,132c4.31,1.38,5.69-1.85,7.67-4.46a34.76,34.76,0,0,1,5.16-5.38c2.2-1.87,5.47-3,3.35-7-0.4-.74.31-1.6,1.13-2a1.89,1.89,0,0,1,2.8,1.23c0.84,2.72,2.45,2.25,4.63,1.81A28.35,28.35,0,0,1,91,115.64c3,0.5,6.8,2.86,8.72-2.09,0.3-.76,1.47-0.75,2.22-0.23a2.18,2.18,0,0,1,.73,2.69c-1.16,2.69.44,3.87,2.35,5.17a23.43,23.43,0,0,1,6.64,6.7c1.77,2.79,3.4,5.3,7.36,4.08a1.82,1.82,0,0,1,2.34,1.37,2,2,0,0,1-1.74,2.54c-3.63.4-2.87,2.61-2.51,5.05A30,30,0,0,1,87.49,175.2ZM87.41,171a25.62,25.62,0,0,0,25.68-25.69,25.65,25.65,0,0,0-51.29.4A25.8,25.8,0,0,0,87.41,171Z"/><path class="i" d="M238.81,175.18a29.72,29.72,0,0,1-29.31-33.53c0.32-2.67,1.19-5.42-3-5.89a1.79,1.79,0,0,1-1.48-2.25,2.22,2.22,0,0,1,2.8-1.51c3.81,1.11,5.22-1.41,7-4a31.35,31.35,0,0,1,5.4-5.83c2.16-1.88,5.36-3,3.5-6.9a1.72,1.72,0,0,1,1.4-2.26,1.91,1.91,0,0,1,2.43,1.23c0.9,2.93,2.71,2.47,5,1.9a26.29,26.29,0,0,1,10.88-.35c2.75,0.49,6.22,2.55,7.68-2.2,0.23-.73,1.39-0.81,2.22-0.4a2,2,0,0,1,1,3c-1.25,2.44,0,3.56,1.91,4.76a21.75,21.75,0,0,1,7,7c1.75,2.88,3.35,5.33,7.32,4.08a1.79,1.79,0,0,1,2.29,1.41,1.72,1.72,0,0,1-1.22,2.36c-4.26.44-3.21,3.42-3,5.93C270.83,162.45,254.24,175.62,238.81,175.18Zm0.34-55.34a25.33,25.33,0,0,0-25.65,25.05,25.61,25.61,0,1,0,51.21.63A25.33,25.33,0,0,0,239.15,119.84Z"/><path class="j" d="M164.42,150c2.5,0,5-.06,7.49,0,5.23,0.13,8.76,3.21,9.63,8.34,0.61,3.58-2.25,8.49-6.42,9.61a40.22,40.22,0,0,1-22.58-.32c-4.53-1.43-5.72-6-4.76-10.4,0.83-3.82,3.06-7,7.66-7.2C158.43,149.91,161.43,150,164.42,150Zm-5.62,10c1.55-.2,5.3,1.14,5.31-2.85,0-3.72-3.55-3.14-6.15-3.22a23.93,23.93,0,0,0-3.49.14,2.77,2.77,0,0,0-2.76,2.94,2.72,2.72,0,0,0,2.71,3C155.57,160.09,156.74,160,158.8,160Z"/><path class="i" d="M162.21,192.2c-5.15,0-10.31,0-15.46,0-3.56,0-5.88-1.8-5.84-5.35,0-3.26,2.16-5,5.57-5.07,10.3-.06,20.61-0.2,30.91-0.21,3.41,0,6,1.61,6.07,5.22,0.05,3.9-2.58,5.44-6.28,5.42C172.18,192.19,167.19,192.21,162.21,192.2Zm-5.55-8.44c-2,.14-4.77-0.24-5,3s2.44,3.41,4.82,3.35S162,190.59,162,187C162,183.77,159.29,183.79,156.65,183.77Zm13.29,6.42c2.05-.19,4.89.17,4.92-3.12s-2.59-3.36-5-3.28-5.42-.35-5.3,3.38C164.7,190.53,167.52,190,169.95,190.19Z"/><path class="i" d="M66.86,112.57c-1.12,0-3.17-.3-3.48-2.5s1.33-3.32,3.37-3.53a38.41,38.41,0,0,0,25-12.06c1.33-1.41,3.12-2.28,4.81-.63,2,1.94.57,3.7-.83,5.16C88,107,78.65,111.48,66.86,112.57Z"/><path class="k" d="M259.93,112.57c-12-1.18-21-5.48-28.48-12.92-1.64-1.63-3.74-3.68-1.24-5.9,2.16-1.92,4,.09,5.51,1.63a37.78,37.78,0,0,0,23.45,11.08c2.11,0.22,4.25,1,3.93,3.53A2.87,2.87,0,0,1,259.93,112.57Z"/><path class="l" d="M239.39,187.06c3.47,4.26,5,8.59,6.47,13,1,3.05-.27,5.27-2.42,6.92a7,7,0,0,1-7.55.44,5.69,5.69,0,0,1-3.16-6.67C233.78,195.84,236.12,191.51,239.39,187.06Z"/><path class="i" d="M163.52,201c-2.23-.31-5.34.72-5.39-2.36,0-2.58,2.94-2.26,4.79-2.22s5.18-.69,5.36,2.13C168.49,201.82,165.19,200.52,163.52,201Z"/><path class="m" d="M489.07,119.84a25.51,25.51,0,0,1,25.54,25.26,25.64,25.64,0,1,1-51.28.21A25.29,25.29,0,0,1,489.07,119.84Zm15.75,25.76c0.08-9.46-8-17.21-17-16.26-2,.21-3.13.4-2.49,3.27,1.33,5.93-2.65,10.52-8.2,9.22-4.46-1-4.33,1.14-4.26,4a16.15,16.15,0,0,0,16.4,15.48A15.85,15.85,0,0,0,504.82,145.6Z"/><path class="m" d="M666.12,145.3A25.56,25.56,0,0,1,640.43,171a25.56,25.56,0,1,1,.42-51.12A25.3,25.3,0,0,1,666.12,145.3Zm-25.49,16a16.14,16.14,0,0,0,15.9-16.39c-0.24-8.88-8-16.14-16.66-15.6-2,.12-3.86-0.12-3,3.29,1.51,6.15-2.78,10.49-9,9.06-2.85-.66-3,0.33-3.23,2.46C623.77,153.19,631.37,161.39,640.63,161.32Z"/><path class="l" d="M559.3,160c-1.17,0-2.33,0-3.5,0a2.9,2.9,0,0,1-.32-5.76,41.77,41.77,0,0,1,7.46-.16,2.64,2.64,0,0,1,2.66,3,2.75,2.75,0,0,1-2.8,2.9C561.64,160.1,560.47,160,559.3,160Z"/><path class="m" d="M558.19,190.17c-2.46.09-5.1-.1-5.11-3.22s2.76-3.22,5.12-3.18,5.51-.25,5.31,3.46C563.32,190.5,560.48,190.1,558.19,190.17Z"/><path class="m" d="M570.79,190.16c-2.25.1-4.94-.08-4.89-3.21,0.05-3.58,3.19-3.12,5.61-3.18s5.09,0.23,4.85,3.45S573.35,190.19,570.79,190.16Z"/><path class="m" d="M87.41,171a25.8,25.8,0,0,1-25.61-25.29A25.65,25.65,0,1,1,87.41,171ZM71.53,145.6a16,16,0,1,0,32-.65A16.18,16.18,0,0,0,87.3,129.31c-2.61,0-4.33.17-3.34,3.9,1.36,5.18-3.23,10.1-8.3,8.62C71.05,140.49,71.57,142.9,71.53,145.6Z"/><path class="m" d="M239.15,119.84a25.33,25.33,0,0,1,25.56,25.68,25.61,25.61,0,1,1-51.21-.63A25.33,25.33,0,0,1,239.15,119.84ZM255,145.18a16,16,0,0,0-16.44-15.88c-2.43.11-3.79,0.27-3,3.71,1.3,5.77-3,10.16-8.65,8.78-4.56-1.11-3.83,1.8-3.82,3.93,0.07,8.64,7.56,15.67,16.29,15.55A15.81,15.81,0,0,0,255,145.18Z"/><path class="l" d="M158.8,160c-2.06,0-3.23.09-4.38,0a2.72,2.72,0,0,1-2.71-3,2.77,2.77,0,0,1,2.76-2.94,23.93,23.93,0,0,1,3.49-.14c2.6,0.08,6.16-.5,6.15,3.22C164.1,161.14,160.35,159.8,158.8,160Z"/><path class="m" d="M156.65,183.77c2.63,0,5.35,0,5.34,3.19,0,3.64-3.09,3.13-5.48,3.19s-5,0-4.82-3.35S154.67,183.91,156.65,183.77Z"/><path class="m" d="M169.95,190.19c-2.43-.16-5.24.34-5.36-3-0.13-3.73,2.89-3.3,5.3-3.38s5,0.11,5,3.28S172,190,169.95,190.19Z"/><path class="k" d="M504.82,145.6a15.85,15.85,0,0,1-15.55,15.68,16.15,16.15,0,0,1-16.4-15.48c-0.08-2.83-.21-5,4.26-4,5.55,1.3,9.52-3.3,8.2-9.22-0.64-2.87.46-3.06,2.49-3.27C496.78,128.39,504.9,136.15,504.82,145.6Z"/><path class="k" d="M640.63,161.32c-9.26.06-16.86-8.13-16-17.17,0.2-2.14.37-3.12,3.23-2.46,6.22,1.43,10.52-2.91,9-9.06-0.84-3.41,1-3.16,3-3.29,8.68-.54,16.42,6.72,16.66,15.6A16.14,16.14,0,0,1,640.63,161.32Z"/><path class="k" d="M71.52,145.6c0-2.7-.47-5.11,4.14-3.76,5.06,1.48,9.66-3.45,8.3-8.62-1-3.73.73-3.86,3.34-3.9a16,16,0,1,1,.25,32A16,16,0,0,1,71.52,145.6Z"/><path class="k" d="M255,145.18a15.81,15.81,0,0,1-15.64,16.09c-8.73.12-16.22-6.91-16.29-15.55,0-2.14-.74-5,3.82-3.93,5.66,1.38,9.95-3,8.65-8.78-0.77-3.44.59-3.6,3-3.71A16,16,0,0,1,255,145.18Z"/></svg>